<svg id="Capa_1" data-name="Capa 1" xmlns="http://www.w3.org/2000/svg" viewBox="0 0 500 108"><defs><style>.cls-1{fill:#ed2648;opacity:0.5;}.cls-2{fill:#77435b;}.cls-2,.cls-3,.cls-4,.cls-5,.cls-6{opacity:0.75;}.cls-3{fill:#8c455b;}.cls-4{fill:#7e7d88;}.cls-5{fill:#3f3d4e;}.cls-6,.cls-7{fill:#4c495b;}</style></defs><path class="cls-1" d="M51.18,15.21V68.13A24.67,24.67,0,0,1,26.52,92.79V39.87A24.67,24.67,0,0,1,51.18,15.21Z"/><path class="cls-2" d="M51.18,68.13A24.67,24.67,0,0,1,26.52,92.79V43.47h.27a24.65,24.65,0,0,1,24.12,21A23.78,23.78,0,0,1,51.18,68.13Z"/><path class="cls-3" d="M51.18,15.21V64.53h-.27a24.64,24.64,0,0,1-24.12-21,23.78,23.78,0,0,1-.27-3.61A24.67,24.67,0,0,1,51.18,15.21Z"/><path class="cls-4" d="M74.46,54a24.65,24.65,0,0,1-20.2,38.79V15.21A24.65,24.65,0,0,1,74.46,54Z"/><path class="cls-5" d="M78.92,68.13A24.67,24.67,0,0,1,54.26,92.79V43.47A24.68,24.68,0,0,1,78.92,68.13Z"/><path class="cls-6" d="M78.92,39.87A24.68,24.68,0,0,1,54.26,64.53V15.21A24.67,24.67,0,0,1,78.92,39.87Z"/><path class="cls-7" d="M101.12,89.2,117.81,23h14.6L149.2,89.2H137.58L134,73.14h-17.6L112.73,89.2Zm17.32-25.31h13.43l-4-17.78c-.67-3-1.24-5.64-1.73-8s-.81-4.13-1-5.22c-.18,1.09-.52,2.83-1,5.22s-1.06,5-1.72,7.94Z"/><path class="cls-7" d="M184.12,90.1a14.3,14.3,0,0,1-8.8-2.63,13.48,13.48,0,0,1-4.9-7.35V89.2H159.35V23h11.34V37l-.36,11.43a13.88,13.88,0,0,1,5-7.35,14.36,14.36,0,0,1,8.76-2.63,14.76,14.76,0,0,1,11.79,5.17q4.44,5.18,4.45,14V71.05q0,8.72-4.49,13.88A14.82,14.82,0,0,1,184.12,90.1Zm-4.27-9.79A9.24,9.24,0,0,0,186.61,78c1.6-1.57,2.41-4,2.41-7.26V57.81c0-3.27-.81-5.68-2.41-7.26a9.24,9.24,0,0,0-6.76-2.36,8.69,8.69,0,0,0-6.75,2.63q-2.41,2.64-2.41,7.44v12q0,4.8,2.41,7.44A8.69,8.69,0,0,0,179.85,80.31Z"/><path class="cls-7" d="M213.69,89.2V79h17.05V49.56H215.5V39.31h26.58V79h15.33V89.2ZM235.64,31a7.9,7.9,0,0,1-5.44-1.77,6.05,6.05,0,0,1-2-4.76,6,6,0,0,1,2-4.76,9.24,9.24,0,0,1,10.88,0,6,6,0,0,1,2,4.76,6.05,6.05,0,0,1-2,4.76A7.9,7.9,0,0,1,235.64,31Z"/><path class="cls-7" d="M282.9,90.1q-7.62,0-12-4.31a15.09,15.09,0,0,1-4.4-11.29,14.48,14.48,0,0,1,5-11.56q5-4.32,13.7-4.31h12.15V55.09q0-7.53-8.79-7.53a11.43,11.43,0,0,0-6.35,1.54,5.62,5.62,0,0,0-2.64,4.36H268.66a14.23,14.23,0,0,1,5.67-10.89q5.31-4.17,14.29-4.17,9.51,0,14.78,4.44t5.26,12.52V89.2H297.6V79.85a10.47,10.47,0,0,1-4.54,7.53Q289.16,90.11,282.9,90.1Zm3.63-9.25a11.86,11.86,0,0,0,7.89-2.45,8.09,8.09,0,0,0,2.9-6.53V66H285.71a8.15,8.15,0,0,0-5.89,2.09,7.08,7.08,0,0,0-2.18,5.35,6.85,6.85,0,0,0,2.31,5.4A9.64,9.64,0,0,0,286.53,80.85Z"/><path class="cls-7" d="M322.63,89.2V39.31H333.7v9.34a12.06,12.06,0,0,1,4.44-7.49,14.18,14.18,0,0,1,9-2.76q7.35,0,11.75,4.9t4.4,13.15V89.2H351.93V57.81c0-3.08-.8-5.46-2.4-7.12a8.62,8.62,0,0,0-6.49-2.5,8.77,8.77,0,0,0-6.67,2.54Q334,53.28,334,58V89.2Z"/><path class="cls-7" d="M377,89.2V79H394V49.56H378.78V39.31h26.58V79h15.33V89.2Zm22-58.24a7.93,7.93,0,0,1-5.45-1.77,6,6,0,0,1-2-4.76,6,6,0,0,1,2-4.76,9.26,9.26,0,0,1,10.89,0,6,6,0,0,1,2,4.76,6.05,6.05,0,0,1-2,4.76A7.92,7.92,0,0,1,398.92,31Z"/><path class="cls-7" d="M452.53,90.1a24.63,24.63,0,0,1-11.21-2.4,17.75,17.75,0,0,1-7.39-6.8,19.93,19.93,0,0,1-2.63-10.39V58a19.93,19.93,0,0,1,2.63-10.39,17.75,17.75,0,0,1,7.39-6.8,24.63,24.63,0,0,1,11.21-2.4q9.35,0,15,4.85t5.94,13.2H462.32a8,8,0,0,0-2.95-6,10.63,10.63,0,0,0-6.84-2.13,10.12,10.12,0,0,0-7.26,2.49c-1.75,1.66-2.63,4-2.63,7.12V70.51a9.54,9.54,0,0,0,2.63,7.17,10,10,0,0,0,7.26,2.54,10.55,10.55,0,0,0,6.89-2.14,8.1,8.1,0,0,0,2.9-6h11.16q-.27,8.36-5.94,13.2T452.53,90.1Z"/></svg>