<?xml version="1.0" standalone="no"?>
<!DOCTYPE svg PUBLIC "-//W3C//DTD SVG 20010904//EN"
 "http://www.w3.org/TR/2001/REC-SVG-20010904/DTD/svg10.dtd">
<svg version="1.0" xmlns="http://www.w3.org/2000/svg"
 width="384.000000pt" height="384.000000pt" viewBox="0 0 384.000000 384.000000"
 preserveAspectRatio="xMidYMid meet">
<metadata>
Created by potrace 1.14, written by Peter Selinger 2001-2017
</metadata>
<g transform="translate(0.000000,384.000000) scale(0.100000,-0.100000)"
fill="#000000" stroke="none">
<path d="M1839 3756 c-3 -3 -39 -8 -80 -11 -83 -5 -160 -19 -234 -41 -69 -21
-179 -67 -183 -76 -2 -5 -12 -8 -23 -8 -10 0 -19 -3 -19 -8 0 -4 -15 -13 -32
-21 -18 -8 -45 -24 -59 -35 -14 -12 -37 -28 -49 -36 -13 -8 -36 -27 -51 -42
-16 -15 -29 -26 -29 -24 0 2 -20 -15 -44 -38 -24 -22 -42 -42 -41 -44 1 -1
-18 -23 -41 -49 -24 -26 -44 -51 -44 -55 0 -5 -8 -18 -18 -29 -11 -11 -32 -45
-48 -77 -16 -31 -32 -59 -35 -62 -7 -6 -23 -53 -20 -59 2 -2 -2 -7 -9 -11 -6
-4 -12 -17 -13 -28 -1 -12 -5 -22 -9 -22 -4 0 -7 -3 -6 -7 0 -5 -1 -15 -4 -23
-30 -90 -34 -110 -26 -110 6 0 6 -5 -1 -14 -6 -7 -14 -40 -19 -72 -4 -32 -7
-644 -7 -1359 l0 -1300 40 1 c37 1 59 3 175 19 25 4 47 11 48 16 2 5 8 7 12 4
12 -8 100 17 100 28 0 5 6 7 14 4 8 -3 22 1 33 8 10 8 26 15 36 15 9 0 17 5
17 11 0 5 4 8 9 4 5 -3 15 0 23 7 7 7 20 14 28 16 8 2 34 17 58 33 23 16 45
29 48 29 14 0 53 38 46 45 -4 5 -2 5 4 2 17 -10 107 71 189 168 22 26 46 53
53 60 6 8 12 18 12 24 0 6 5 11 10 11 6 0 10 5 10 11 0 6 11 25 25 43 14 18
22 36 18 39 -3 4 -2 7 4 7 11 0 48 78 45 92 -1 5 2 8 8 8 6 0 9 3 8 7 0 5 2
15 5 23 28 67 46 131 52 185 2 17 4 30 5 30 2 0 10 35 16 70 8 55 10 257 1
262 -4 3 -3 11 4 19 9 11 9 14 0 14 -7 0 -9 5 -4 13 11 17 10 566 -1 559 -5
-3 -5 1 0 9 9 15 13 1729 4 1755 -3 8 -8 13 -11 10z m-99 -432 c0 -8 -19 -13
-24 -6 -3 5 1 9 9 9 8 0 15 -2 15 -3z m-655 -153 c3 -5 2 -12 -3 -15 -5 -3 -9
1 -9 9 0 17 3 19 12 6z m242 -256 c0 -8 -4 -12 -9 -9 -5 3 -6 10 -3 15 9 13
12 11 12 -6z m240 0 c0 -8 -4 -12 -9 -9 -5 3 -6 10 -3 15 9 13 12 11 12 -6z
m243 -71 c0 -8 -19 -13 -24 -6 -3 5 1 9 9 9 8 0 15 -2 15 -3z m-803 -239 c0
-8 -4 -12 -9 -9 -5 3 -6 10 -3 15 9 13 12 11 12 -6z m803 -81 c0 -8 -19 -13
-24 -6 -3 5 1 9 9 9 8 0 15 -2 15 -3z m-965 -713 c3 -5 2 -12 -3 -15 -5 -3 -9
1 -9 9 0 17 3 19 12 6z m240 -160 c3 -5 2 -12 -3 -15 -5 -3 -9 1 -9 9 0 17 3
19 12 6z m-240 -160 c3 -5 2 -12 -3 -15 -5 -3 -9 1 -9 9 0 17 3 19 12 6z m399
-249 c3 -5 -1 -9 -9 -9 -8 0 -12 4 -9 9 3 4 7 8 9 8 2 0 6 -4 9 -8z m-77 -567
c0 -8 -4 -12 -9 -9 -5 3 -6 10 -3 15 9 13 12 11 12 -6z m77 -73 c3 -5 -1 -9
-9 -9 -8 0 -12 4 -9 9 3 4 7 8 9 8 2 0 6 -4 9 -8z m90 -160 c3 -5 -1 -9 -9 -9
-8 0 -12 4 -9 9 3 4 7 8 9 8 2 0 6 -4 9 -8z"/>
<path d="M1999 3734 c-3 -54 -4 -3621 -1 -3631 3 -11 68 -11 157 1 328 45 637
240 817 516 171 264 229 572 163 880 -3 14 -7 34 -9 45 -15 76 -77 223 -133
313 -39 61 -39 67 -12 107 57 85 138 281 154 375 3 19 8 42 10 50 8 24 17 150
17 210 -3 159 -36 316 -98 456 -29 67 -93 179 -121 211 -10 12 -29 37 -43 55
-40 53 -160 167 -225 213 -86 62 -254 147 -315 160 -3 1 -25 7 -50 14 -25 7
-58 15 -75 18 -16 2 -36 6 -44 9 -8 3 -54 7 -103 11 -82 5 -88 4 -89 -13z"/>
</g>
</svg>
